<svg width="21" height="23" viewBox="0 0 21 23" fill="none" xmlns="http://www.w3.org/2000/svg">
<path d="M18.6667 2.3H17.5V0H15.1667V2.3H5.83333V0H3.5V2.3H2.33333C1.71449 2.3 1.121 2.54232 0.683417 2.97365C0.245833 3.40499 0 3.99 0 4.6V20.7C0 21.31 0.245833 21.895 0.683417 22.3263C1.121 22.7577 1.71449 23 2.33333 23H18.6667C19.2855 23 19.879 22.7577 20.3166 22.3263C20.7542 21.895 21 21.31 21 20.7V4.6C21 3.99 20.7542 3.40499 20.3166 2.97365C19.879 2.54232 19.2855 2.3 18.6667 2.3ZM18.6667 20.7H2.33333V9.2H18.6667V20.7ZM2.33333 6.9V4.6H18.6667V6.9H2.33333ZM4.66667 11.5H16.3333V13.8H4.66667V11.5ZM4.66667 16.1H12.8333V18.4H4.66667V16.1Z" fill="white"/>
</svg>
