<svg width="84" height="64" viewBox="0 0 84 64" fill="none" xmlns="http://www.w3.org/2000/svg">
<path fill-rule="evenodd" clip-rule="evenodd" d="M47.0487 0.546199C47.8196 -0.182066 49.0249 -0.182066 49.7957 0.546199L66.7828 16.5948C68.098 17.8373 67.2186 20.0486 65.4093 20.0486H60.4222V27H93C94.6569 27 96 28.3431 96 30V94C96 95.6569 94.6569 97 93 97H3C1.34315 97 0 95.6569 0 94V30C0 28.3431 1.34315 27 3 27H35V20.0486H31.4352C29.6259 20.0486 28.7465 17.8373 30.0617 16.5948L47.0487 0.546199ZM53.5555 18.893C53.5555 22.084 50.9688 24.6708 47.7778 24.6708C44.5868 24.6708 42 22.084 42 18.893C42 15.7021 44.5868 13.1153 47.7778 13.1153C50.9688 13.1153 53.5555 15.7021 53.5555 18.893ZM48.9611 16.0042C48.9611 15.6452 48.6701 15.3542 48.3111 15.3542C47.9521 15.3542 47.6611 15.6452 47.6611 16.0042V18.7378L45.6394 20.0855C45.3408 20.2847 45.26 20.6882 45.4592 20.9869C45.6583 21.2856 46.0619 21.3663 46.3606 21.1672L48.6717 19.6265C48.8525 19.5059 48.9611 19.303 48.9611 19.0856V16.0042Z" fill="#0071C2"/>
</svg>
