<svg width="109" height="119" viewBox="0 0 109 119" fill="none" xmlns="http://www.w3.org/2000/svg">
<path d="M96.3323 74.238C93.9715 73.8342 89.8833 73.2574 89.8833 69.2773C89.8257 66.8546 90.9197 65.2395 93.1654 63.509C93.7412 63.0475 95.4686 61.7785 98.1173 61.3747C99.3265 61.2016 100.305 61.0286 100.305 59.7019C100.305 59.5288 100.305 57.9714 98.5203 57.9714C98.0021 57.9714 85.0465 59.1251 82.5705 59.1827C81.5917 59.2404 80.2673 59.2981 80.2673 60.8555C80.2673 62.1823 81.131 62.586 81.822 62.586C82.1675 62.586 90.3439 61.7208 91.2076 61.6054C89.365 63.0475 86.6012 65.2395 86.6012 69.6234C86.6012 70.6617 86.6587 72.7382 88.6741 74.6418C90.4015 76.2569 94.1442 77.5259 96.1595 77.5259C97.1384 77.5259 97.7142 76.8914 97.7142 75.7954C97.7718 74.411 96.8505 74.2957 96.3323 74.238ZM25.5082 63.0475C26.7174 64.951 26.8901 65.1818 27.6962 65.1818C27.9842 65.1818 29.3661 65.0087 29.3661 63.4513C29.3661 62.8745 28.2721 61.2593 27.8114 60.6248C26.0264 58.2598 25.4506 57.9137 24.8172 57.9137C24.0687 57.9137 23.3201 58.4905 23.3201 59.4135C23.3201 59.8749 23.4353 60.048 23.8384 60.6825C25.0475 62.3553 25.1627 62.5284 25.5082 63.0475ZM41.0549 57.5676C40.6519 57.5099 39.0396 56.8177 38.6941 56.8177C37.7153 56.8177 37.197 57.7407 37.197 58.3175C37.197 59.3558 37.9456 59.7019 38.2911 59.8173C40.9398 61.0286 45.1432 61.4901 46.122 61.4901C47.2161 61.4901 47.6767 60.6248 47.6767 59.9903C47.6767 59.8749 47.6767 58.6059 46.2372 58.4905C44.9128 58.3175 43.4733 58.2021 41.0549 57.5676ZM95.7565 63.509C95.2383 63.509 94.8352 63.9127 94.8928 64.4319C94.8928 64.7203 94.9503 64.778 95.6413 65.7009C96.6202 67.143 96.6778 67.316 97.196 67.316C97.6566 67.316 98.2324 66.9123 98.2324 66.2777C98.1749 65.4702 96.6778 63.509 95.7565 63.509ZM8.5795 72.1614C8.5795 75.2763 11.113 77.7567 14.5103 77.7567C15.9498 77.7567 17.2742 77.1798 17.7348 76.2569C17.9076 75.7954 18.0227 75.334 18.0227 74.1226V68.1813C18.4834 68.1236 19.0016 68.0082 19.8653 68.0082C21.1321 68.0082 25.3354 68.1813 25.3354 71.2385C25.3354 73.5458 23.1474 74.2957 21.5351 74.4687C20.2684 74.6418 19.2319 74.8148 19.2319 76.1992C19.2319 77.3529 19.8653 77.872 21.0169 77.872C25.2779 77.872 28.7903 75.2186 28.7903 71.2385C28.7903 67.2584 24.99 64.951 20.038 64.951C19.0592 64.951 18.4834 65.0087 18.0227 65.0664V63.1052L20.8442 63.0475C21.2472 63.0475 22.6867 62.9898 22.6867 61.5477C22.6867 61.0863 22.3988 60.5095 21.9382 60.221C21.5927 60.048 21.3624 60.048 20.4987 60.048L18.0227 60.1634V59.5865C18.0227 58.3752 18.0227 56.9908 16.468 56.9908C14.9134 56.9908 14.9134 58.3175 14.9134 59.5865V60.3364L10.9979 60.4518C10.3645 60.4518 9.09773 60.5095 9.09773 61.9515C9.09773 62.2976 9.21289 63.5667 10.9403 63.4513L14.9709 63.3359V65.7009C12.0343 66.3931 8.5795 68.5851 8.5795 72.1614ZM14.7982 68.9312V73.3728C14.7982 74.238 14.7982 74.4687 14.28 74.4687C13.1859 74.4687 11.9192 73.6035 11.9192 72.0461C11.9192 71.3539 12.1495 69.681 14.7982 68.9312ZM100.478 64.778C100.478 63.9128 98.981 62.1246 98.1749 62.1246C97.6566 62.1246 97.3111 62.4707 97.3111 62.9898C97.3111 63.5666 98.5779 65.2971 99.1537 65.5856C99.3265 65.6432 99.5568 65.7009 99.6144 65.7009C99.9599 65.7009 100.478 65.4702 100.478 64.778ZM68.636 65.8163C68.1754 65.8163 64.6054 65.8163 62.878 67.6045C63.6841 66.1047 63.8568 65.4702 64.5478 63.7397C66.6207 63.682 71.4575 63.3936 73.4152 63.1052C74.682 62.9321 74.8547 62.0669 74.8547 61.6054C74.8547 60.8556 74.5092 60.1057 73.3576 60.1057C73.0122 60.1057 71.3423 60.2787 70.9392 60.3941C69.5573 60.5094 68.2906 60.5671 65.5267 60.6825C65.6418 60.1634 65.8722 59.2404 65.8722 58.779C65.8146 57.1638 64.4326 57.1638 64.2023 57.1638C63.6265 57.1638 63.1083 57.4523 62.878 58.0291C62.878 58.0868 62.3597 60.6248 62.3022 60.7402H58.1564C57.1775 60.7402 56.3714 61.2593 56.3714 62.3553C56.3714 63.2782 57.1199 63.7974 57.8109 63.8551H61.3809C60.8627 65.2395 60.4596 66.2201 59.308 68.412C58.6746 69.681 58.5594 69.7964 58.5594 70.2579C58.5594 71.1231 59.1928 72.0461 60.2293 72.0461C60.7475 72.0461 60.8627 71.9884 62.2446 70.9501C63.1083 70.3732 65.2388 68.7004 68.2905 68.7004C71.0544 68.7004 72.0909 70.3156 72.0909 71.4115C72.0909 72.3345 71.2847 74.6995 66.448 74.6995C65.5843 74.6995 64.4326 74.6418 63.5114 74.5264C63.2235 74.4687 63.1083 74.4687 62.7628 74.4687C61.8991 74.4687 61.2657 75.1032 61.2657 76.1415C61.2657 77.8143 62.7628 78.0451 65.4115 78.0451C69.1543 78.0451 70.8241 77.4106 71.9181 76.8337C74.1062 75.7954 75.2578 73.6612 75.2578 71.5846C75.2002 68.4697 72.7818 65.8163 68.636 65.8163ZM50.9012 69.2196C50.9012 62.8745 44.1643 62.7591 43.7612 62.7591C41.0549 62.7591 38.6941 63.1052 35.5272 64.1435C34.1453 64.5473 33.224 64.8934 33.224 66.047C33.224 66.9123 33.7998 67.7775 34.7211 67.7775C35.1241 67.7775 35.7575 67.4891 35.8151 67.4891C39.6154 66.1624 40.5367 65.8163 42.6672 65.8163C45.6038 65.8163 47.3888 66.7392 47.3888 69.1619C47.3888 70.6617 46.7554 71.5846 46.2948 72.0461C44.7977 73.7765 41.3428 74.5841 39.5578 74.6995C38.6941 74.7571 37.4849 74.8148 37.4849 76.3146C37.4849 77.1798 38.0608 78.1028 39.3851 78.1028C39.9609 78.0451 50.9012 77.4106 50.9012 69.2196ZM23.1474 89.0625V87.8512C23.1474 86.7552 22.5716 86.2361 21.3048 86.2361C20.0956 86.2361 19.5198 86.7552 19.5198 87.8512V89.0625H14.3376C13.3587 89.0625 12.8405 89.6394 12.8405 90.793C12.8405 91.9467 13.3011 92.4081 14.3376 92.4081H19.5198V96.9651H13.0708C12.0919 96.9651 11.5737 97.5419 11.5737 98.5802C11.5737 99.7339 12.0343 100.195 13.0708 100.195H29.7691C30.748 100.195 31.2662 99.6185 31.2662 98.5802C31.2662 97.5419 30.748 96.9651 29.7691 96.9651H23.1474V92.4081H28.5024C29.4812 92.4081 29.9995 91.8313 29.9995 90.793C29.9995 89.2933 29.0782 89.0625 28.5024 89.0625H23.1474ZM29.8267 104.118H28.1569V101.868C28.1569 101.003 27.4083 100.368 26.3719 100.368C25.393 100.368 24.5869 101.003 24.5869 101.868V104.118H13.0708C12.0919 104.118 11.5737 104.695 11.5737 105.848C11.5737 107.002 12.0343 107.463 13.0708 107.463H24.5869V115.193H21.9382C21.0745 115.193 20.4411 115.943 20.4411 116.981C20.4411 118.019 21.0745 118.769 21.9382 118.769H25.3354C27.0053 118.769 28.0993 117.673 28.0993 116V107.463H29.7116C30.2298 107.521 30.5753 107.406 30.8632 107.175C31.1511 106.887 31.2662 106.483 31.2662 105.906C31.3238 104.695 30.8056 104.118 29.8267 104.118ZM16.9287 109.54C16.9287 109.54 16.8711 109.54 16.9287 109.54C16.6984 109.079 16.468 108.559 15.6619 108.559C14.8558 108.559 13.6466 109.079 13.6466 110.059C13.6466 110.232 13.7042 110.463 13.8193 110.751L15.4892 115.366C15.6619 115.827 15.9498 116.347 16.7559 116.347C17.5621 116.347 18.7713 115.827 18.7713 114.847C18.7713 114.558 18.6561 114.27 18.5985 114.27L16.9287 109.54ZM7.94612 87.8512H2.87903C1.15161 87.8512 0 88.9472 0 90.62V115.251C0 116.923 1.15161 118.019 2.87903 118.019H7.88854C9.61595 118.019 10.7676 116.923 10.7676 115.251V90.62C10.8251 88.9472 9.67353 87.8512 7.94612 87.8512ZM7.37031 114.558H3.33967V104.291H7.37031V114.558ZM7.37031 100.772H3.33967V91.3122H7.37031V100.772ZM107.33 86.3514C106.236 86.3514 105.718 86.8129 105.718 87.8512V115.308H103.184C102.378 115.308 101.745 116 101.745 117.039C101.745 118.077 102.378 118.827 103.184 118.827H106.466C108.136 118.827 109.058 117.904 109.058 116.231V87.9089C109 86.8706 108.424 86.3514 107.33 86.3514ZM95.1807 87.6205H89.6529C89.5954 86.5822 89.0195 86.063 87.8104 86.063C86.6012 86.063 86.0829 86.5245 86.0254 87.6205H80.3825C78.7126 87.6205 77.7913 88.5434 77.7913 90.2162V92.1774C77.7913 93.1003 78.3096 93.5618 79.346 93.5618C80.3825 93.5618 80.9007 93.1003 80.9007 92.1774V90.62H94.6049V92.1774C94.6049 93.1003 95.1231 93.5618 96.1595 93.5618C97.2536 93.5618 97.7142 93.1003 97.7142 92.1774V90.2162C97.7718 88.5434 96.8505 87.6205 95.1807 87.6205ZM96.2747 104.233H89.5954V102.099H94.2018C95.1231 102.099 95.5837 101.58 95.5837 100.599C95.5837 99.5608 95.1231 99.0994 94.2018 99.0994H89.5954V96.9074H94.2018C95.1231 96.9074 95.6413 96.3883 95.6413 95.4077C95.6413 94.3694 95.1807 93.8502 94.2018 93.8502H89.5954V93.6195C89.5954 92.5235 89.0195 92.062 87.8104 92.062C86.6012 92.062 86.0254 92.5812 86.0254 93.6195V93.8502H81.4189C80.4976 93.8502 80.037 94.3694 80.037 95.4077C80.037 96.4459 80.4976 96.9074 81.4189 96.9074H86.0254V99.0994H81.3613C80.728 99.0994 79.9794 99.3878 79.9794 100.599C79.9794 101.637 80.44 102.099 81.3613 102.099H86.0254V104.233H79.2884C78.655 104.233 77.9065 104.522 77.9065 105.733C77.9065 107.002 78.655 107.233 79.2884 107.233H96.2171C97.1384 107.233 97.5991 106.714 97.5991 105.733C97.5991 104.752 97.196 104.233 96.2747 104.233ZM66.7359 86.8706H59.308C57.6381 86.8706 56.3138 88.1973 56.3138 89.8701V97.3689C56.3138 99.0417 57.6381 100.368 59.308 100.368H66.1601V117.154C66.1601 118.25 66.6783 118.712 67.9451 118.712C69.1543 118.712 69.7301 118.192 69.7301 117.154V89.8701C69.6725 88.255 68.3481 86.8706 66.7359 86.8706ZM66.1025 97.1958H59.5383V95.1769H66.1025V97.1958ZM66.1025 92.2928H59.5383V90.1008H66.1025V92.2928ZM93.5108 109.021H81.9947C80.3249 109.021 79.2309 110.117 79.2309 111.79V115.481C79.2309 117.154 80.3249 118.25 81.9947 118.25H93.5108C95.1807 118.25 96.2747 117.154 96.2747 115.481V111.79C96.2747 110.117 95.1807 109.021 93.5108 109.021ZM92.8774 115.251H82.6281V112.193H92.8774V115.251ZM59.0777 102.964H50.0375C48.3677 102.964 47.0433 104.291 47.0433 105.964V113.751C47.0433 115.424 48.3677 116.75 50.0375 116.75H59.0777C60.7475 116.75 62.0718 115.424 62.0718 113.751V105.964C62.0718 104.291 60.7475 102.964 59.0777 102.964ZM58.7898 113.693H50.2678V111.213H58.7898V113.693ZM58.7898 108.502H50.2678V106.137H58.7898V108.502ZM102.781 110.348V89.2933C102.781 88.3127 102.205 87.7935 101.111 87.7935C100.017 87.7935 99.4992 88.255 99.4992 89.2933V110.348C99.4992 111.328 100.075 111.847 101.111 111.847C102.263 111.847 102.781 111.386 102.781 110.348ZM52.8014 97.3689V89.8701C52.8014 88.1973 51.477 86.8706 49.8072 86.8706H42.3217C40.6519 86.8706 39.3275 88.1973 39.3275 89.8701V117.5C39.3275 118.365 40.0761 119 41.1125 119C42.0914 119 42.8975 118.365 42.8975 117.5V100.368H49.8648C51.5346 100.368 52.8014 99.0417 52.8014 97.3689ZM49.5769 97.1958H42.9551V95.1769H49.5193V97.1958H49.5769ZM49.5769 92.2928H42.9551V90.1008H49.5193V92.2928H49.5769ZM44.8553 21.4581H42.8399C41.9186 21.4581 41.0549 20.8812 40.7095 20.016C40.364 19.1508 40.5367 18.1701 41.2277 17.4779L41.2853 17.4203L53.1469 6.74891C53.6075 6.34513 54.1833 6.1144 54.7591 6.1144C55.3925 6.1144 55.9683 6.34513 56.3714 6.74891L68.233 17.4203L68.2905 17.4779C68.9815 18.1125 69.1543 19.1508 68.8088 20.016C68.4633 20.8812 67.5996 21.4581 66.6783 21.4581H64.663V25.6689H74.8547C74.682 26.8803 74.3941 28.0916 73.991 29.2453L74.9123 29.476C75.3154 28.2647 75.6033 26.938 75.776 25.6689H74.8547C74.9699 24.746 75.085 23.7654 75.085 22.7848C75.085 11.4212 65.8722 2.19195 54.4712 2.19195C43.0703 2.19195 33.8574 11.4212 33.8574 22.7848C33.8574 23.7654 33.9725 24.746 34.0877 25.6689H44.7977V21.4581H44.8553ZM74.9699 31.3219L74.682 31.2065H74.6244C74.6244 31.2065 74.5668 31.2065 74.5668 31.2642L74.1062 32.1294C74.1062 32.1871 74.1062 32.2448 74.1638 32.2448L74.3365 32.3602C74.3941 32.3602 74.5092 32.4755 74.3941 32.7639L74.2789 33.0523C74.2213 33.1677 74.1638 33.2254 74.1062 33.2831C74.0486 33.2831 74.0486 33.3408 73.9334 33.2831L73.4728 33.0523L74.3941 31.2642C74.3941 31.2065 74.3941 31.1488 74.3365 31.1488L73.4728 30.745C73.2425 30.6297 72.9546 30.6297 72.7243 30.8027C72.4939 30.9758 72.3212 31.1488 72.1484 31.4949L71.8605 32.1294C71.6878 32.4178 71.6302 32.7639 71.6302 33.0523C71.6302 33.3408 71.803 33.5715 72.0333 33.6869L73.5304 34.4367C73.6455 34.4944 73.7031 34.4944 73.8183 34.4944C73.8759 34.4944 73.8759 34.4944 73.9334 34.4944C74.3365 34.4367 74.6244 34.1483 74.8547 33.6869L75.1426 33.0523C75.3154 32.7639 75.373 32.4755 75.3154 32.1871C75.3154 31.668 75.2002 31.4372 74.9699 31.3219ZM72.7818 32.5909L72.6091 32.4755C72.5515 32.4755 72.4363 32.3602 72.5515 32.0717L72.6667 31.7833C72.7242 31.668 72.7818 31.6103 72.8394 31.5526C72.897 31.5526 72.897 31.4949 73.0122 31.5526L73.1849 31.668L72.7818 32.5909ZM66.851 38.3015C66.5631 38.3015 66.2752 38.4169 66.0449 38.6476L65.4691 39.0514C65.1812 39.2244 65.0085 39.5128 64.8933 39.7436C64.7781 40.032 64.7781 40.2627 64.9509 40.4935L65.9297 41.8778C65.9873 41.9932 66.1025 42.0509 66.2176 42.1086C66.3328 42.1663 66.448 42.1663 66.5631 42.1663C66.851 42.1663 67.1389 42.0509 67.4844 41.8202L68.0602 41.4164C68.3481 41.2433 68.5209 41.0126 68.636 40.7242C68.7512 40.4358 68.7512 40.205 68.5784 39.9743L67.5996 38.5899C67.4268 38.3592 67.1965 38.2438 66.851 38.3015ZM67.3693 40.8396L67.1389 41.0126C66.851 41.1856 66.7934 41.0703 66.7359 41.0126L65.8722 39.8013C65.8146 39.7436 65.8146 39.6859 65.8146 39.6859C65.8146 39.6282 65.8722 39.5128 65.9873 39.4552L66.2176 39.2821C66.3328 39.2244 66.3904 39.1667 66.448 39.1667C66.5055 39.1667 66.5631 39.2244 66.5631 39.2244L67.4268 40.4358C67.4844 40.4935 67.4844 40.5511 67.4844 40.5511C67.542 40.7242 67.4844 40.7819 67.3693 40.8396ZM34.9514 29.303C34.5483 28.1493 34.2604 26.938 34.0877 25.7266H33.1088C33.2816 27.0533 33.5695 28.3223 33.9725 29.5337L34.9514 29.303ZM54.5288 0C41.8611 0 31.6693 10.2099 31.6693 22.8425C31.6693 23.8231 31.7269 24.8037 31.842 25.7266H33.1664C33.0512 24.8037 32.9937 23.8231 32.9937 22.8425C32.9937 10.9598 42.6096 1.32671 54.5288 1.32671C66.3904 1.32671 76.0063 10.9598 76.0063 22.8425C76.0063 23.8231 75.9488 24.8037 75.8336 25.7266H77.158C77.2731 24.8037 77.3307 23.8231 77.3307 22.8425C77.3307 10.2099 67.1389 0 54.5288 0ZM49.1738 41.6471L48.0222 42.4547L47.5615 41.1857C47.5615 41.1857 47.5615 41.128 47.504 41.128L46.6403 40.8396C46.5827 40.8396 46.5827 40.8396 46.5827 40.8396C46.5827 40.8396 46.5251 40.8972 46.5827 40.8972L47.3312 43.0315L46.9282 44.3005C46.9282 44.3582 46.9282 44.4159 46.9857 44.4159L47.907 44.7043C47.907 44.7043 47.907 44.7043 47.9646 44.7043C47.9646 44.7043 48.0222 44.7043 48.0222 44.6466L48.4253 43.3776L50.2678 42.1086L50.3254 42.0509C50.3254 41.9932 50.3254 41.9932 50.2678 41.9932L49.3465 41.7048C49.2314 41.6471 49.2314 41.6471 49.1738 41.6471ZM54.5288 16.9588C52.1104 16.9588 50.1527 18.92 50.1527 21.3427C50.1527 23.7654 52.1104 25.7266 54.5288 25.7266C56.9472 25.7266 58.9049 23.7654 58.9049 21.3427C58.8473 18.92 56.9472 16.9588 54.5288 16.9588ZM55.047 21.3427C55.047 21.5158 54.9894 21.6888 54.8167 21.8042L53.3196 22.9578C53.2044 23.0155 53.0893 23.0732 52.9741 23.0732C52.8014 23.0732 52.6286 23.0155 52.5135 22.8425C52.3407 22.6117 52.3407 22.2656 52.6286 22.0926L53.8954 21.112V19.3238C53.8954 19.0354 54.1257 18.8047 54.4136 18.8047C54.7015 18.8047 54.9319 19.0354 54.9319 19.3238V21.3427H55.047ZM39.2124 33.8599C39.2124 33.8022 39.1548 33.8022 39.0972 33.8599L38.579 34.206L38.2911 33.8022C38.2911 33.8022 38.2335 33.8022 38.2335 33.7445H38.1759L37.7153 34.0906L37.6577 34.1483V34.206L37.9456 34.6098L36.6212 35.7635C36.5061 35.8211 36.4485 35.9365 36.3909 36.1095C36.2758 36.4556 36.3909 36.9171 36.7364 37.3209L37.0243 37.667L37.0819 37.7247H37.1395L37.6001 37.3786L37.6577 37.3209V37.2632L37.4274 36.9748C37.2546 36.7441 37.3698 36.6287 37.3698 36.571L38.6941 35.5327L39.0396 35.9365C39.0396 35.9365 39.0972 35.9365 39.0972 35.9942H39.1548L39.6154 35.6481L39.673 35.5904V35.5327L39.3275 35.1289L39.8457 34.7252L39.9033 34.6675V34.6098L39.2124 33.8599ZM54.4712 41.301L53.0317 41.2433C52.9741 41.2433 52.9741 41.2433 52.9741 41.301L51.2467 45.5119V45.5696L51.3043 45.6272L52.2831 45.6849C52.3407 45.6849 52.3407 45.6849 52.3407 45.6272L52.6862 44.7043L54.4136 44.762L54.7015 45.7426C54.7015 45.8003 54.7591 45.8003 54.7591 45.8003L55.738 45.858C55.738 45.858 55.7956 45.858 55.7956 45.8003V45.7426L54.4136 41.4164C54.5288 41.301 54.5288 41.301 54.4712 41.301ZM53.0317 43.9544L53.7227 42.397L54.2985 44.0121L53.0317 43.9544ZM45.719 39.2244C45.6614 39.2244 45.6038 39.2244 45.6038 39.2821L45.1432 40.0897C45.0856 40.032 45.028 39.9166 44.8553 39.8589L44.337 39.5128C44.0491 39.3398 43.7612 39.2821 43.4733 39.2821C43.1854 39.2821 42.9551 39.3975 42.8399 39.6282L41.9762 41.0703C41.9186 41.1856 41.8611 41.301 41.9187 41.4164C41.9762 41.8202 42.2066 42.1086 42.6672 42.397L43.1278 42.6854C43.243 42.7431 43.4157 42.8008 43.5309 42.8585C43.5309 42.8585 43.5309 42.8585 43.5309 42.9161C43.5309 42.9161 43.5309 42.9738 43.5885 42.9738L44.4522 43.4353C44.4522 43.4353 44.4522 43.4353 44.5098 43.4353C44.5098 43.4353 44.5674 43.4353 44.5674 43.3776L46.6403 39.8013V39.7436C46.6403 39.7436 46.6403 39.6859 46.5827 39.6859L45.719 39.2244ZM44.6825 40.7819L43.934 42.1086C43.8764 42.1663 43.8188 42.2816 43.5309 42.1086L43.1854 41.8778C43.0703 41.8202 43.0127 41.7625 42.9551 41.6471C42.9551 41.5894 42.9551 41.5894 42.9551 41.5317L43.7036 40.2627C43.7036 40.205 43.7612 40.1474 43.8764 40.1474C43.934 40.1474 43.9915 40.1474 44.1067 40.205L44.4522 40.4358C44.7977 40.6088 44.7401 40.7819 44.6825 40.7819ZM34.7211 32.4178L35.1241 32.1871C35.1241 32.1871 35.1817 32.1871 35.1817 32.1294C35.1817 32.0717 35.1817 32.0717 35.1817 32.0717L34.7211 31.2065C34.7211 31.2065 34.7211 31.1488 34.6635 31.1488H34.6059L34.0877 31.4372C33.9725 31.4949 33.8574 31.6103 33.7998 31.7256C33.627 32.0717 33.6846 32.4755 33.915 32.9947L34.2604 33.6869C34.4332 33.9753 34.6059 34.206 34.8362 34.3791C35.009 34.4944 35.1241 34.5521 35.2969 34.5521C35.412 34.5521 35.5272 34.5521 35.5848 34.4944L36.5637 33.9753C36.794 33.8599 36.9091 33.6292 36.9667 33.3408C36.9667 33.0523 36.9091 32.7639 36.7364 32.4755L36.4485 31.9564C36.3909 31.841 36.3333 31.7256 36.3909 31.668C36.3909 31.6103 36.4485 31.6103 36.5061 31.5526L36.9667 31.3219C37.0243 31.3219 37.0819 31.2642 37.0819 31.3219C37.1395 31.3219 37.197 31.4372 37.3122 31.5526L37.4849 31.8987C37.6577 32.1871 37.4849 32.2448 37.4849 32.3025L37.197 32.4755C37.197 32.4755 37.1395 32.4755 37.1395 32.5332V32.5909L37.6001 33.4561C37.6001 33.5138 37.6577 33.5138 37.7153 33.5138L38.0607 33.3408C38.2911 33.2254 38.4062 32.9947 38.4638 32.7063C38.4638 32.4178 38.4062 32.1294 38.2335 31.841L37.888 31.1488C37.7153 30.8604 37.5425 30.6297 37.2546 30.4566C37.0243 30.2836 36.7364 30.2836 36.5061 30.3989L35.8727 30.6873C35.7575 30.745 35.6424 30.8604 35.5848 30.9758C35.412 31.3219 35.4696 31.7256 35.6999 32.2448L35.9879 32.7639C36.1606 33.0523 36.0454 33.11 35.9879 33.1677L35.1817 33.5715C35.1241 33.5715 35.0666 33.6292 35.0666 33.5715C35.009 33.5715 34.9514 33.4561 34.8362 33.3408L34.6635 32.9947C34.6059 32.8793 34.6059 32.8216 34.6059 32.7063C34.6059 32.5332 34.6635 32.4755 34.7211 32.4178ZM40.9398 37.0325C40.9974 36.9748 40.9398 36.9171 40.9398 36.9171L40.1912 36.2826H40.1336H40.0761L38.4062 38.0708C38.2911 38.1861 38.2335 38.3015 38.2335 38.4169C38.1759 38.8206 38.3487 39.1667 38.8093 39.5705L39.0972 39.8013C39.2699 39.9166 39.4427 40.032 39.6154 40.0897L39.5578 40.1474V40.205V40.2627L40.3064 40.8972H40.364H40.4216L42.552 38.5322V38.4745V38.4169L41.8035 37.7824H41.7459H41.6883L40.1912 39.4552C40.1337 39.5128 40.0185 39.5128 39.9033 39.5128C39.8457 39.5128 39.7306 39.4552 39.6154 39.3398L39.4427 39.1667C39.2124 38.936 39.2699 38.8207 39.3275 38.8207L40.9398 37.0325ZM70.7089 35.1289C70.8241 35.0136 70.8817 34.9559 70.9392 34.9559C70.9968 34.9559 70.9968 34.9559 71.0544 35.0136L72.8394 36.5133H72.897H72.9546L73.588 35.7635C73.6455 35.7058 73.588 35.6481 73.588 35.6481L71.7454 34.0906C71.6302 33.9753 71.5151 33.9753 71.3999 33.9176C70.9968 33.9176 70.6513 34.0906 70.3059 34.4944L70.1331 34.7252C69.9028 34.9559 69.7876 35.2443 69.7876 35.5904C69.4997 35.6481 69.2118 35.8211 68.9815 36.1672L68.8088 36.398C68.6936 36.571 68.5784 36.7441 68.5209 36.9171L68.4633 36.8594C68.4057 36.8017 68.3481 36.8594 68.3481 36.8594L67.7147 37.6093V37.667C67.7147 37.667 67.7147 37.7247 67.7723 37.7247L70.1907 39.8013H70.2483C70.2483 39.8013 70.3059 39.8013 70.3059 39.7436L70.9392 38.9937V38.936C70.9392 38.936 70.9392 38.8783 70.8817 38.8783L69.2118 37.4363C69.1543 37.3786 69.1543 37.3209 69.1543 37.2055C69.1543 37.0902 69.2118 36.9748 69.327 36.8594L69.4422 36.7441C69.6725 36.5133 69.7876 36.571 69.7876 36.6287L71.5726 38.1285C71.6302 38.1861 71.6878 38.1285 71.6878 38.1285L72.3212 37.3786V37.3209C72.3212 37.3209 72.3212 37.2632 72.2636 37.2632L70.5362 35.7635C70.5362 35.7635 70.4786 35.7058 70.4786 35.6481C70.4786 35.475 70.5362 35.3597 70.6513 35.1866L70.7089 35.1289ZM56.0259 42.397L56.0835 42.9738C56.0835 42.9738 56.0835 43.0315 56.141 43.0315H56.1986L56.7169 42.9738L56.9472 44.7043C56.9472 44.8197 57.0048 44.935 57.1199 45.0504C57.3502 45.2811 57.6381 45.3965 58.0412 45.3965C58.1564 45.3965 58.2715 45.3965 58.3867 45.3965L58.8473 45.3388C58.9049 45.3388 58.9049 45.2811 58.9049 45.2235L58.8473 44.6466C58.8473 44.5889 58.7898 44.589 58.7322 44.589L58.5019 44.6466C58.3867 44.6466 58.2715 44.6466 58.2139 44.589C58.1564 44.589 58.1564 44.5313 58.1564 44.4736L57.926 42.8008L58.4443 42.7431C58.5019 42.7431 58.5019 42.6854 58.5019 42.6277L58.4443 42.0509C58.4443 42.0509 58.4443 41.9932 58.3867 41.9932H58.3291L57.8109 42.0509L57.6957 41.4164C57.6957 41.3587 57.6381 41.3587 57.5806 41.3587L56.6017 41.5317C56.6017 41.5317 56.5441 41.5317 56.5441 41.5894V41.6471L56.6593 42.2816L56.141 42.3393C56.0259 42.3393 56.0259 42.397 56.0259 42.397ZM61.3233 40.0897C61.3233 40.0897 61.2657 40.032 61.3233 40.0897C61.2657 40.032 61.2081 40.032 61.2081 40.032L60.2868 40.4358C60.2293 40.4358 60.2293 40.4935 60.2293 40.5511L61.9567 44.4736C61.9567 44.5313 62.0143 44.5313 62.0143 44.5313C62.0143 44.5313 62.0143 44.5313 62.0718 44.5313L62.9931 44.1275C62.9931 44.1275 63.0507 44.1275 63.0507 44.0698V44.0121L62.3022 42.2816L63.5114 41.7625L64.2599 43.493C64.2599 43.5507 64.3175 43.5507 64.3751 43.5507L65.2964 43.1469C65.2964 43.1469 65.3539 43.1469 65.3539 43.0892V43.0315L63.6265 39.1091C63.6265 39.1091 63.6265 39.0514 63.5689 39.0514H63.5114L62.5901 39.4552C62.5325 39.4552 62.5325 39.5128 62.5325 39.5705L63.2235 41.0703L62.0143 41.5894L61.3233 40.0897Z" fill="white"/>
</svg>
