<svg width="24" height="26" viewBox="0 0 24 26" fill="none" xmlns="http://www.w3.org/2000/svg">
<path d="M20.5457 9.1C22.7084 11.2273 22.7084 14.5364 20.5457 16.7818L21.7472 17.9636C24.7509 15.2455 24.7509 10.7545 21.7472 7.91818L20.5457 9.1ZM19.224 10.4L18.0225 11.5818C18.6233 12.4091 18.6233 13.4727 18.0225 14.3L19.224 15.4818C20.6658 14.0636 20.6658 11.9364 19.224 10.4ZM14.418 0H2.403C1.76569 0 1.15447 0.249025 0.703823 0.692293C0.253173 1.13556 0 1.73676 0 2.36364V23.6364C0 24.2632 0.253173 24.8644 0.703823 25.3077C1.15447 25.751 1.76569 26 2.403 26H14.418C15.0553 26 15.6666 25.751 16.1172 25.3077C16.5679 24.8644 16.821 24.2632 16.821 23.6364V2.36364C16.821 1.73676 16.5679 1.13556 16.1172 0.692293C15.6666 0.249025 15.0553 0 14.418 0ZM14.418 22.4545H2.403V3.54545H14.418V22.4545Z" fill="white"/>
</svg>
