<svg width="23" height="25" viewBox="0 0 23 25" fill="none" xmlns="http://www.w3.org/2000/svg">
<path d="M2.3 6.81818V22.7273H18.4V25H2.3C1.035 25 0 23.9773 0 22.7273V6.81818H2.3ZM20.7 2.27273C21.965 2.27273 23 3.29545 23 4.54545V18.1818C23 19.4318 21.965 20.4545 20.7 20.4545H6.9C5.635 20.4545 4.6 19.4318 4.6 18.1818V4.54545C4.6 3.29545 5.635 2.27273 6.9 2.27273H10.557C11.04 0.954545 12.305 0 13.8 0C15.295 0 16.56 0.954545 17.043 2.27273H20.7ZM13.8 2.27273C13.1675 2.27273 12.65 2.78409 12.65 3.40909C12.65 4.03409 13.1675 4.54545 13.8 4.54545C14.4325 4.54545 14.95 4.03409 14.95 3.40909C14.95 2.78409 14.4325 2.27273 13.8 2.27273ZM9.2 6.81818V4.54545H6.9V18.1818H20.7V4.54545H18.4V6.81818H9.2ZM14.95 15.9091H9.2V13.6364H14.95V15.9091ZM18.4 11.3636H9.2V9.09091H18.4V11.3636Z" fill="white"/>
</svg>
