<?xml version="1.0" encoding="utf-8"?>
<!-- Generator: Adobe Illustrator 22.1.0, SVG Export Plug-In . SVG Version: 6.00 Build 0)  -->
<svg version="1.1" id="レイヤー_1" xmlns="http://www.w3.org/2000/svg" xmlns:xlink="http://www.w3.org/1999/xlink" x="0px"
	 y="0px" viewBox="0 0 257 34.4" style="enable-background:new 0 0 257 34.4;" xml:space="preserve">
<style type="text/css">
	.st0{fill:#083232;}
	.st1{clip-path:url(#SVGID_2_);}
	.st2{fill:#0078BF;}
	.st3{clip-path:url(#SVGID_4_);fill:#FFFFFF;}
</style>
<path class="st0" d="M44.7,10.2c-0.1-1.4-0.1-2.8-0.2-4.3C44.8,6,45,6,45.3,6c0.3,0,0.5,0,0.8,0c0.3,0,0.5,0,0.8,0
	c0.3,0,0.5-0.1,0.8-0.1c-0.1,1.5-0.1,2.9-0.2,4.3c-0.1,1.4-0.1,2.8-0.1,4.2v5.6c0,1.4,0,2.9,0.1,4.3c0.1,1.4,0.1,2.8,0.2,4.1
	c-0.5,0-1-0.1-1.6-0.1c-0.6,0-1.1,0-1.6,0.1c0.1-1.4,0.1-2.7,0.2-4.1c0-1.4,0.1-2.8,0.1-4.3v-5.6C44.7,13,44.7,11.6,44.7,10.2z"/>
<path class="st0" d="M64.3,19.9c-2.8-3.1-5.7-6.1-8.5-9.1c0,0.6,0,1.4-0.1,2.5c0,1,0,2.4,0,4.2c0,0.5,0,1,0,1.7c0,0.7,0,1.4,0,2.1
	c0,0.7,0,1.5,0,2.3c0,0.8,0,1.5,0.1,2.1c0,0.7,0,1.2,0.1,1.7c0,0.5,0,0.8,0.1,1c-0.4,0-0.7-0.1-1.2-0.1c-0.4,0-0.9,0-1.2,0.1
	c0-0.2,0.1-0.6,0.1-1.2c0.1-0.6,0.1-1.3,0.2-2.1c0-0.8,0.1-1.7,0.1-2.7c0-1,0.1-1.9,0.1-2.9c0-1,0.1-1.9,0.1-2.8c0-0.9,0-1.7,0-2.5
	c0-2.1,0-3.9,0-5.4c0-1.5,0-2.6-0.1-3.4h0.5c1.3,1.4,2.8,3,4.3,4.6c1.5,1.7,3,3.3,4.5,4.9c1.5,1.6,2.9,3.1,4.3,4.6
	c1.3,1.4,2.5,2.6,3.5,3.7v-4.5c0-2.3,0-4.5-0.1-6.7c0-2.2-0.1-4.2-0.2-6.2c0.4,0.1,0.8,0.2,1.1,0.2c0.3,0,0.6-0.1,1.1-0.2
	c0,0.5-0.1,1.2-0.1,2.2c-0.1,1-0.1,2-0.2,3.1c-0.1,1.1-0.1,2.2-0.1,3.2c0,1.1-0.1,1.9-0.1,2.5c0,0.5,0,1.2,0,2c0,0.8,0,1.5,0,2.3
	c0,0.8,0,1.6,0,2.4c0,0.8,0,1.6,0,2.3c0,0.7,0,1.3,0,1.9c0,0.5,0,0.8,0,1.1h-0.5C69.8,26,67.1,23,64.3,19.9z"/>
<path class="st0" d="M79.3,10.2c-0.1-1.4-0.1-2.8-0.2-4.3c1,0.1,2,0.1,2.9,0.1c1,0,2,0,2.9,0c1,0,2,0,3,0c1,0,2.1-0.1,3.3-0.1
	c-0.1,0.3-0.1,0.7-0.1,1c0,0.3,0,0.7,0.1,1c-0.6-0.1-1.3-0.1-2.1-0.2c-0.8,0-1.7-0.1-2.5-0.1c-0.9,0-1.7-0.1-2.5-0.1
	c-0.8,0-1.5,0-2,0c0,0.8,0,1.5-0.1,2.2c0,0.7,0,1.4,0,2.1c0,0.8,0,1.5,0,2.1c0,0.6,0,1.3,0,2c1.4,0,2.9,0,4.3-0.1
	c1.4,0,2.8-0.1,4.2-0.3c-0.1,0.3-0.1,0.7-0.1,1c0,0.3,0,0.7,0.1,1c-0.5-0.1-1.2-0.1-1.9-0.2c-0.7,0-1.4-0.1-2.2-0.1
	c-0.7,0-1.5,0-2.3,0c-0.8,0-1.5,0-2.2,0v2.8c0,1.4,0,2.9,0.1,4.3c0,1.4,0.1,2.8,0.2,4.1c-0.5,0-1-0.1-1.6-0.1c-0.6,0-1.1,0-1.6,0.1
	c0.1-1.4,0.1-2.7,0.2-4.1c0.1-1.4,0.1-2.8,0.1-4.3v-5.6C79.4,13,79.4,11.6,79.3,10.2z"/>
<path class="st0" d="M94.9,12.3c0.6-1.5,1.4-2.7,2.5-3.7c1.1-1,2.4-1.8,3.9-2.3c1.5-0.5,3.2-0.8,5-0.8c1.8,0,3.5,0.3,5,0.8
	c1.5,0.5,2.8,1.3,3.9,2.3c1.1,1,1.9,2.2,2.5,3.7c0.6,1.5,0.9,3.1,0.9,5c0,1.9-0.3,3.5-0.9,5c-0.6,1.5-1.4,2.7-2.5,3.7
	c-1.1,1-2.4,1.8-3.9,2.2c-1.5,0.5-3.2,0.7-5,0.7c-1.8,0-3.4-0.2-5-0.7c-1.5-0.5-2.8-1.2-3.9-2.2c-1.1-1-1.9-2.2-2.5-3.7
	c-0.6-1.4-0.9-3.1-0.9-5C94,15.4,94.3,13.7,94.9,12.3z M114.6,12.5c-0.5-1.3-1.1-2.4-1.9-3.3c-0.8-0.9-1.8-1.5-2.9-1.9
	c-1.1-0.4-2.3-0.6-3.6-0.6c-1.3,0-2.5,0.2-3.6,0.6c-1.1,0.4-2.1,1.1-2.9,1.9c-0.8,0.9-1.5,2-1.9,3.3c-0.5,1.3-0.7,2.9-0.7,4.7
	c0,1.8,0.2,3.4,0.7,4.7c0.5,1.3,1.1,2.4,1.9,3.3c0.8,0.9,1.8,1.5,2.9,1.9c1.1,0.4,2.3,0.6,3.6,0.6c1.3,0,2.5-0.2,3.6-0.6
	c1.1-0.4,2.1-1,2.9-1.9c0.8-0.9,1.5-2,1.9-3.3c0.5-1.3,0.7-2.9,0.7-4.7C115.3,15.4,115.1,13.9,114.6,12.5z"/>
<path class="st0" d="M129.6,10.2c-0.1-1.4-0.1-2.8-0.2-4.3c0.3,0.1,0.6,0.1,0.8,0.1c0.3,0,0.5,0,0.8,0c0.3,0,0.5,0,0.8,0
	c0.3,0,0.5-0.1,0.8-0.1c-0.1,1.5-0.1,2.9-0.2,4.3c0,1.4-0.1,2.8-0.1,4.2c0,2.7,0,5.1,0,7.2c0,2,0,3.8,0.1,5.4c1.6,0,3,0,4.5,0
	c1.4,0,3-0.2,4.6-0.4c-0.1,0.4-0.2,0.7-0.2,1c0,0.2,0.1,0.5,0.2,0.9c-1,0-2-0.1-3-0.1c-1,0-2,0-3,0c-1,0-2.1,0-3,0c-1,0-2,0-3,0.1
	c0.1-1.4,0.1-2.7,0.2-4.1c0.1-1.4,0.1-2.8,0.1-4.3v-5.6C129.6,13,129.6,11.6,129.6,10.2z"/>
<path class="st0" d="M144.5,12.3c0.6-1.5,1.4-2.7,2.5-3.7c1.1-1,2.4-1.8,3.9-2.3c1.5-0.5,3.2-0.8,4.9-0.8c1.8,0,3.5,0.3,5,0.8
	c1.5,0.5,2.8,1.3,3.9,2.3c1.1,1,1.9,2.2,2.5,3.7c0.6,1.5,0.9,3.1,0.9,5c0,1.9-0.3,3.5-0.9,5c-0.6,1.5-1.4,2.7-2.5,3.7
	c-1.1,1-2.4,1.8-3.9,2.2c-1.5,0.5-3.2,0.7-5,0.7c-1.8,0-3.4-0.2-4.9-0.7c-1.5-0.5-2.8-1.2-3.9-2.2c-1.1-1-1.9-2.2-2.5-3.7
	c-0.6-1.4-0.9-3.1-0.9-5C143.6,15.4,143.8,13.7,144.5,12.3z M164.2,12.5c-0.5-1.3-1.1-2.4-1.9-3.3c-0.8-0.9-1.8-1.5-2.9-1.9
	c-1.1-0.4-2.3-0.6-3.6-0.6c-1.3,0-2.5,0.2-3.6,0.6c-1.1,0.4-2.1,1.1-2.9,1.9c-0.8,0.9-1.5,2-1.9,3.3c-0.5,1.3-0.7,2.9-0.7,4.7
	c0,1.8,0.2,3.4,0.7,4.7c0.5,1.3,1.1,2.4,1.9,3.3c0.8,0.9,1.8,1.5,2.9,1.9c1.1,0.4,2.3,0.6,3.6,0.6c1.3,0,2.5-0.2,3.6-0.6
	c1.1-0.4,2.1-1,2.9-1.9c0.8-0.9,1.5-2,1.9-3.3c0.5-1.3,0.7-2.9,0.7-4.7C164.9,15.4,164.7,13.9,164.2,12.5z"/>
<path class="st0" d="M189.1,9.4c0-1.7-0.1-2.8-0.2-3.5c0.2,0.1,0.5,0.1,0.7,0.1c0.2,0,0.4,0,0.7,0c0.3,0,0.6-0.1,1-0.2
	c-0.1,0.8-0.1,1.7-0.2,2.7c-0.1,1.1-0.1,2.2-0.2,3.4c0,1.2-0.1,2.5-0.1,3.7c-0.1,1.3-0.1,2.5-0.1,3.7c0,1.5-0.2,2.8-0.7,3.9
	c-0.4,1.2-1,2.1-1.8,3c-0.8,0.8-1.8,1.4-2.9,1.8c-1.1,0.4-2.5,0.6-4,0.6c-3.3,0-5.7-0.7-7.2-2.2c-1.5-1.5-2.2-3.8-2.2-7.1
	c0-1,0-1.9,0.1-2.7c0.1-0.8,0.1-1.6,0.1-2.4c0-1.8,0-3.5-0.1-4.9c0-1.4-0.1-2.6-0.1-3.6c0.3,0.1,0.5,0.1,0.8,0.1c0.3,0,0.6,0,0.9,0
	c0.2,0,0.5,0,0.7,0c0.2,0,0.5-0.1,0.7-0.1c0,0.5-0.1,1.1-0.1,1.9c0,0.8-0.1,1.7-0.1,2.6c0,1-0.1,2-0.1,3.2c0,1.1,0,2.3,0,3.5
	c0,0.7,0,1.5,0,2.3c0,0.8,0.1,1.6,0.2,2.3c0.1,0.8,0.3,1.5,0.6,2.2c0.3,0.7,0.7,1.3,1.3,1.8c0.5,0.5,1.2,0.9,2.1,1.2
	c0.8,0.3,1.9,0.4,3.1,0.4c1.2,0,2.2-0.2,3-0.5c0.8-0.4,1.5-0.8,2-1.4c0.5-0.6,0.9-1.2,1.2-2c0.3-0.7,0.5-1.5,0.6-2.3
	c0.1-0.8,0.2-1.6,0.2-2.4c0-0.8,0-1.6,0-2.2C189.2,13.5,189.2,11.1,189.1,9.4z"/>
<path class="st0" d="M206.1,19.9c-2.8-3.1-5.7-6.1-8.5-9.1c0,0.6-0.1,1.4-0.1,2.5c0,1,0,2.4,0,4.2c0,0.5,0,1,0,1.7
	c0,0.7,0,1.4,0,2.1c0,0.7,0,1.5,0.1,2.3c0,0.8,0,1.5,0.1,2.1c0,0.7,0,1.2,0.1,1.7c0,0.5,0,0.8,0.1,1c-0.4,0-0.7-0.1-1.2-0.1
	c-0.4,0-0.8,0-1.2,0.1c0-0.2,0.1-0.6,0.1-1.2c0.1-0.6,0.1-1.3,0.2-2.1c0-0.8,0.1-1.7,0.1-2.7c0.1-1,0.1-1.9,0.1-2.9
	c0-1,0.1-1.9,0.1-2.8c0-0.9,0-1.7,0-2.5c0-2.1,0-3.9,0-5.4c0-1.5,0-2.6-0.1-3.4h0.5c1.3,1.4,2.8,3,4.3,4.6c1.5,1.7,3,3.3,4.5,4.9
	c1.5,1.6,2.9,3.1,4.3,4.6c1.3,1.4,2.5,2.6,3.5,3.7v-4.5c0-2.3,0-4.5,0-6.7c0-2.2-0.1-4.2-0.2-6.2c0.4,0.1,0.8,0.2,1.1,0.2
	c0.3,0,0.6-0.1,1-0.2c0,0.5-0.1,1.2-0.1,2.2c-0.1,1-0.1,2-0.2,3.1c-0.1,1.1-0.1,2.2-0.2,3.2c0,1.1-0.1,1.9-0.1,2.5c0,0.5,0,1.2,0,2
	c0,0.8,0,1.5,0,2.3c0,0.8,0,1.6,0,2.4c0,0.8,0,1.6,0,2.3c0,0.7,0,1.3,0,1.9c0,0.5,0,0.8,0,1.1h-0.5C211.6,26,208.9,23,206.1,19.9z"
	/>
<path class="st0" d="M237.4,8.7c-0.5-0.4-1-0.7-1.6-1c-0.6-0.3-1.3-0.5-2-0.7c-0.7-0.2-1.5-0.3-2.4-0.3c-1.4,0-2.6,0.2-3.8,0.6
	c-1.2,0.4-2.2,1.1-3.1,1.9c-0.9,0.9-1.5,2-2,3.3c-0.5,1.3-0.7,2.9-0.7,4.7c0,1.6,0.2,3,0.7,4.3c0.4,1.3,1.1,2.4,1.9,3.3
	c0.8,0.9,1.9,1.6,3.1,2c1.2,0.5,2.6,0.7,4.1,0.7c0.5,0,0.9,0,1.4-0.1c0.5,0,1-0.1,1.5-0.2c0.5-0.1,0.9-0.2,1.3-0.3
	c0.4-0.1,0.7-0.3,1-0.5c0-0.7,0-1.3,0.1-2c0-0.7,0-1.3,0-2c0-0.8,0-1.5-0.1-2.3c0-0.8-0.1-1.5-0.1-2.2c0.6,0.1,1.1,0.2,1.6,0.2
	c0.2,0,0.5,0,0.7,0c0.2,0,0.5-0.1,0.7-0.1c-0.1,0.5-0.1,1.3-0.1,2.4c0,1.1,0,2.5,0,4.3c0,0.4,0,0.9,0,1.3c0,0.4,0,0.9,0,1.3
	c-0.5,0.2-1,0.4-1.7,0.5c-0.7,0.2-1.4,0.3-2.2,0.5c-0.8,0.1-1.5,0.2-2.3,0.3c-0.8,0.1-1.5,0.2-2.1,0.2c-1.9,0-3.7-0.2-5.3-0.7
	c-1.6-0.5-2.9-1.2-4-2.2c-1.1-1-1.9-2.2-2.5-3.7c-0.6-1.5-0.9-3.2-0.9-5.1c0-1.9,0.3-3.5,0.9-5c0.6-1.5,1.5-2.7,2.6-3.7
	c1.1-1,2.5-1.8,4.1-2.3c1.6-0.5,3.3-0.8,5.3-0.8c1.1,0,2.1,0.1,3,0.2c0.9,0.1,1.6,0.3,2.3,0.5c0.7,0.2,1.3,0.4,1.8,0.6
	c0.5,0.2,0.9,0.4,1.3,0.6c-0.2,0.3-0.3,0.7-0.5,1.2c-0.1,0.5-0.2,0.9-0.3,1.3h-0.4C238.3,9.5,237.9,9.1,237.4,8.7z"/>
<path class="st0" d="M245.3,10.1c-0.1-1.4-0.1-2.8-0.2-4.2c1,0.1,2,0.1,2.9,0.1c1,0,2,0,2.9,0c1,0,2,0,2.9,0c1,0,1.9-0.1,2.9-0.1
	c-0.1,0.3-0.1,0.7-0.1,1c0,0.3,0,0.7,0.1,1c-0.7-0.1-1.3-0.1-1.9-0.1c-0.6,0-1.2-0.1-1.8-0.1c-0.7-0.1-1.4-0.1-2.1-0.1
	c-0.8,0-1.7-0.1-2.8-0.1c0,0.7-0.1,1.4-0.1,2c0,0.6-0.1,1.4-0.1,2.2c0,0.9,0,1.7,0,2.5c0,0.8,0,1.4,0,1.8c1,0,1.8,0,2.6,0
	c0.8,0,1.5-0.1,2.1-0.1c0.6,0,1.2-0.1,1.8-0.1c0.5,0,1-0.1,1.5-0.1c-0.1,0.3-0.1,0.7-0.1,1c0,0.3,0,0.7,0.1,1
	c-0.6-0.1-1.2-0.1-2-0.2c-0.7,0-1.5-0.1-2.3-0.1c-0.8,0-1.5,0-2.1,0c-0.7,0-1.2,0-1.6,0c0,0.2,0,0.4,0,0.6c0,0.2,0,0.5,0,0.9v1.3v2
	c0,1.2,0,2.3,0,3.1c0,0.8,0,1.4,0.1,1.8c0.7,0,1.5,0,2.3,0c0.8,0,1.6,0,2.4,0c0.8,0,1.6-0.1,2.3-0.1c0.7-0.1,1.3-0.1,1.8-0.2
	c0,0.2-0.1,0.3-0.1,0.5c0,0.2,0,0.4,0,0.5c0,0.4,0,0.6,0.1,0.9c-1,0-2-0.1-2.9-0.1c-1,0-2,0-3,0c-1,0-2,0-3,0c-1,0-2,0-3,0.1
	c0.1-1.4,0.1-2.8,0.2-4.2c0.1-1.4,0.1-2.8,0.1-4.3v-5.6C245.4,12.9,245.4,11.5,245.3,10.1z"/>
<g>
	<defs>
		<rect id="SVGID_1_" y="0" width="34.4" height="34.4"/>
	</defs>
	<clipPath id="SVGID_2_">
		<use xlink:href="#SVGID_1_"  style="overflow:visible;"/>
	</clipPath>
	<g class="st1">
		<rect y="0" class="st2" width="34.4" height="34.4"/>
		<g>
			<defs>
				<path id="SVGID_3_" d="M23,18.3c-1.5,1.3-2.4,2.7-4.5,4.5c-0.1,1-0.6,2.5-1.4,4.2c-1.2,2.6-2.7,4.6-3.2,4.3
					c-0.5-0.2,0.6-3.1,0.9-5.6c-0.4,0.3-0.7,0.5-1.1,0.8C8,30.5,3.4,36,1,36.5l-1.6-1.7c-0.4-2.7,0.8-8.5,3.4-13.3
					c-2.4-1.3-6.8-0.2-6.4-0.8c1.1-2,5.4-2.8,9-3.2h0c0.8-1,1.7-1.8,2.7-2.5c6.9-4.8,14.1-3.8,15.3-1.4c0,0.1,0.6,0.6,0.6,0.7
					c2.5,0.5,6.2,0.9,6.1,2C30.1,17.1,25.4,17,23,18.3z"/>
			</defs>
			<clipPath id="SVGID_4_">
				<use xlink:href="#SVGID_3_"  style="overflow:visible;"/>
			</clipPath>
			<rect y="0" class="st3" width="34.4" height="34.4"/>
		</g>
	</g>
</g>
<g>
</g>
<g>
</g>
<g>
</g>
<g>
</g>
<g>
</g>
<g>
</g>
<g>
</g>
<g>
</g>
<g>
</g>
<g>
</g>
<g>
</g>
<g>
</g>
<g>
</g>
<g>
</g>
<g>
</g>
</svg>
